<?xml version="1.0" encoding="UTF-8"?>
<svg id="Layer_1" data-name="Layer 1" xmlns="http://www.w3.org/2000/svg" viewBox="0 0 512 505.76">
  <defs>
    <style>
      .cls-1 {
        fill: #00a7e0;
      }

      .cls-2 {
        fill: #185bcf;
      }
    </style>
  </defs>
  <rect class="cls-1" width="279.2" height="279.2"/>
  <path class="cls-2" d="M182.98,342.92c31.74,25.05,100.21,50.94,145.31,50.94,30.9,0,40.09-8.35,40.09-19.2,0-13.36-18.37-18.37-56.79-23.38-67.65-9.19-172.03-21.72-172.03-131.11,0-72.65,63.47-137.79,180.39-137.79,67.64,0,127.76,20.88,174.53,51.78l-55.11,97.71c-25.05-20.88-71.82-41.76-118.59-41.76-21.71,0-37.58,5.85-37.58,17.54s11.69,16.71,51.78,22.55c67.64,10.02,177.03,24.22,177.03,136.96,0,80.16-71.82,138.62-191.24,138.62-74.32,0-154.49-25.89-197.91-61.8l60.12-101.04Z"/>
</svg>