<?xml version="1.0" encoding="UTF-8"?><svg id="a" xmlns="http://www.w3.org/2000/svg" viewBox="0 0 512 512"><defs><style>.b{fill:#185bcf;}</style></defs><path class="b" d="M0,0v512h130.884235c-35.038441-11.826332-66.100462-27.760354-88.331519-46.143776l65.954273-110.843515c34.815678,27.480906,109.934065,55.881207,159.399895,55.881207,33.896283,0,43.979295-9.16312,43.979295-21.065529,0-14.659599-20.156079-20.156079-62.296584-25.652061-74.20844-10.083012-188.71959-23.823216-188.71959-143.830348,0-79.694975,69.631356-151.155175,197.88271-151.155175,74.198993,0,140.153763,22.903821,191.457885,56.800104l-60.458291,107.185826c-27.480906-22.903821-78.785525-45.80814-130.089647-45.80814-23.813768,0-41.221607,6.415377-41.221607,19.236684,0,12.831251,12.821307,18.327234,56.800601,24.733163,74.198993,10.992462,194.205628,26.571456,194.205628,150.245725,0,57.406238-33.751586,104.51963-93.506782,130.415836h136.059498V0H0Z"/></svg>