<?xml version="1.0" encoding="UTF-8"?>
<svg id="Layer_1" data-name="Layer 1" xmlns="http://www.w3.org/2000/svg" viewBox="0 0 507.88 104.69">
  <defs>
    <style>
      .cls-1 {
        fill: #00a7e0;
      }

      .cls-2 {
        fill: #185bcf;
      }
    </style>
  </defs>
  <path class="cls-2" d="M8.1,62.07c4.27,3.37,13.49,6.86,19.57,6.86,4.16,0,5.4-1.12,5.4-2.59,0-1.8-2.47-2.47-7.65-3.15-9.11-1.24-23.16-2.92-23.16-17.65,0-9.78,8.55-18.55,24.29-18.55,9.11,0,17.2,2.81,23.5,6.97l-7.42,13.16c-3.37-2.81-9.67-5.62-15.97-5.62-2.92,0-5.06.79-5.06,2.36s1.57,2.25,6.97,3.04c9.11,1.35,23.84,3.26,23.84,18.44,0,10.79-9.67,18.67-25.75,18.67-10.01,0-20.8-3.49-26.65-8.32l8.1-13.61Z"/>
  <path class="cls-2" d="M96.59,52.4c0-5.62-3.04-7.53-7.87-7.53s-6.97,2.36-8.66,4.27v33.51h-20.24V7.65h20.24v26.87c3.15-3.6,9.11-7.53,18.67-7.53,12.59,0,18.1,7.42,18.1,16.87v38.79h-20.24v-30.25Z"/>
  <path class="cls-2" d="M126.84,11.36c0-6.3,5.06-11.36,11.36-11.36s11.36,5.06,11.36,11.36-5.06,11.36-11.36,11.36-11.36-5.06-11.36-11.36ZM128.07,28.34h20.24v54.31h-20.24V28.34Z"/>
  <path class="cls-2" d="M159.56,103.34V28.34h20.24v5.74c4.39-5.17,9.67-7.08,15.29-7.08,13.49,0,23.84,9.9,23.84,28.45s-10.34,28.56-23.84,28.56c-5.62,0-10.8-1.91-15.29-7.08v26.43h-20.24ZM188.12,44.87c-2.59,0-6.41,1.35-8.32,3.71v13.83c1.8,2.25,5.73,3.71,8.32,3.71,5.4,0,10.12-3.82,10.12-10.68s-4.72-10.57-10.12-10.57Z"/>
  <path class="cls-2" d="M226.46,7.65h20.24v75h-20.24V7.65Z"/>
  <path class="cls-2" d="M256.71,11.36c0-6.3,5.06-11.36,11.36-11.36s11.36,5.06,11.36,11.36-5.06,11.36-11.36,11.36-11.36-5.06-11.36-11.36ZM257.95,28.34h20.24v54.31h-20.24V28.34Z"/>
  <path class="cls-2" d="M316.19,26.99c12.37,0,20.02,5.62,23.05,10.23l-13.04,12.26c-1.69-2.59-4.84-4.61-9.11-4.61-5.73,0-10.68,3.6-10.68,10.57s4.95,10.68,10.68,10.68c4.27,0,7.42-2.25,9.11-4.72l13.04,12.37c-3.04,4.5-10.68,10.23-23.05,10.23-17.2,0-30.47-11.24-30.47-28.56s13.27-28.45,30.47-28.45Z"/>
  <path class="cls-2" d="M344.64,11.36c0-6.3,5.06-11.36,11.36-11.36s11.36,5.06,11.36,11.36-5.06,11.36-11.36,11.36-11.36-5.06-11.36-11.36ZM345.88,28.34h20.24v54.31h-20.24V28.34Z"/>
  <path class="cls-2" d="M381.52,66.91v-21.03h-8.99v-17.54h8.99v-14.84h20.24v14.84h11.02v17.54h-11.02v15.18c0,2.81,1.8,5.06,4.5,5.06,1.8,0,3.6-.56,4.05-1.01l3.6,15.29c-2.14,1.91-6.86,3.6-13.72,3.6-12.03,0-18.67-5.73-18.67-17.09Z"/>
  <rect class="cls-1" x="448.79" y="13.49" width="37.6" height="37.6"/>
  <path class="cls-2" d="M444.72,59.37l-10.34-31.04h-21.37l21.37,55.21-.45,1.12c-.67,1.46-3.15,2.14-7.08,2.14-1.35,0-3.04-.34-4.27-1.01l-2.81,17.99c1.91.56,6.41.9,7.87.9,11.47-.34,20.47-2.7,25.3-15.29l11.61-30.02h-19.82Z"/>
  <g>
    <path class="cls-2" d="M494.88,14.6h-2.48v-1.06h6.15v1.06h-2.47v6.94h-1.2v-6.94Z"/>
    <path class="cls-2" d="M506.68,15.19l-2.59,6.36h-.5l-2.59-6.36v6.36h-1.2v-8h1.71l2.33,5.74,2.33-5.74h1.71v8h-1.2v-6.36Z"/>
  </g>
</svg>